<svg xmlns="http://www.w3.org/2000/svg" viewBox="0 0 80 120">
  <defs>
    <style>
      .cls-1, .cls-2 {
        fill: #fff;
        stroke-linecap: round;
        stroke-linejoin: round;
      }

      .cls-1 {
        stroke: #000;
      }

      .cls-2 {
        stroke: #006837;
      }
    </style>
  </defs>
  <g id="card-39">
    <g>
      <rect class="cls-1" width="80" height="120"/>
      <g>
        <polyline class="cls-2" points="40 90 50 90 40 70"/>
        <polyline class="cls-2" points="35 80 30 90 40 90"/>
        <line class="cls-2" x1="35" y1="80" x2="40" y2="70"/>
        <line class="cls-2" x1="40" y1="90" x2="40" y2="70"/>
        <line class="cls-2" x1="35" y1="80" x2="35" y2="90"/>
        <line class="cls-2" x1="35" y1="80" x2="35" y2="80"/>
        <line class="cls-2" x1="45" y1="80" x2="45" y2="90"/>
      </g>
      <g>
        <polyline class="cls-2" points="40 50 50 50 40 30"/>
        <polyline class="cls-2" points="35 40 30 50 40 50"/>
        <line class="cls-2" x1="35" y1="40" x2="40" y2="30"/>
        <line class="cls-2" x1="40" y1="50" x2="40" y2="30"/>
        <line class="cls-2" x1="35" y1="40" x2="35" y2="50"/>
        <line class="cls-2" x1="35" y1="40" x2="35" y2="40"/>
        <line class="cls-2" x1="45" y1="40" x2="45" y2="50"/>
      </g>
    </g>
  </g>
</svg>
